<?xml version="1.0" encoding="UTF-8"?>
<svg version="1.1" xmlns="http://www.w3.org/2000/svg" width="100" height="100">
<path d="M0 0 C1.41694656 -0.01441132 1.41694656 -0.01441132 2.86251831 -0.02911377 C4.39067673 -0.03548859 4.39067673 -0.03548859 5.94970703 -0.04199219 C6.99901398 -0.04769226 8.04832092 -0.05339233 9.12942505 -0.05926514 C11.3502705 -0.06871405 13.57112997 -0.07524869 15.79199219 -0.07910156 C19.18726066 -0.08880926 22.58192435 -0.11983503 25.97705078 -0.15136719 C28.13459927 -0.15789714 30.29215209 -0.16314764 32.44970703 -0.16699219 C33.46443085 -0.17933899 34.47915466 -0.19168579 35.52462769 -0.20440674 C41.77078661 -0.18469421 45.25577608 0.52392414 50.08251953 4.66113281 C52.43182004 7.48029343 52.46783211 10.30642242 52.50952148 13.81274414 C52.52877434 15.22484917 52.52877434 15.22484917 52.54841614 16.66548157 C52.55580307 17.68111679 52.56319 18.69675201 52.57080078 19.74316406 C52.57887253 20.79009933 52.58694427 21.83703461 52.59526062 22.91569519 C52.60909471 25.13233792 52.61981988 27.34900189 52.62768555 29.56567383 C52.64489993 32.95011879 52.68879324 36.33358728 52.73291016 39.71777344 C52.74303717 41.87206313 52.75155325 44.02636113 52.75830078 46.18066406 C52.77580887 47.19022659 52.79331696 48.19978912 52.81135559 49.23994446 C52.79352837 55.03409719 52.41568468 58.69333115 48.33251953 63.16113281 C43.75595899 67.24319211 38.32593841 66.59453245 32.52001953 66.55957031 C30.95030396 66.56387558 30.95030396 66.56387558 29.34887695 66.56826782 C27.13996844 66.57030609 24.93104179 66.56479286 22.72216797 66.55224609 C19.34447807 66.53618966 15.96798479 66.55210344 12.59033203 66.57128906 C10.44189189 66.56930659 8.2934525 66.56546283 6.14501953 66.55957031 C5.13656982 66.56564301 4.12812012 66.5717157 3.08911133 66.57797241 C-3.57584183 66.51124044 -6.87167265 65.60528934 -11.94238281 61.17236328 C-14.57805533 56.57168613 -14.27813479 52.19829423 -14.26904297 46.98144531 C-14.28189835 45.35225662 -14.28189835 45.35225662 -14.29501343 43.69015503 C-14.30648508 41.39551579 -14.30751146 39.10080383 -14.29882812 36.80615234 C-14.29251399 33.30471942 -14.33941166 29.80667837 -14.39013672 26.30566406 C-14.39468374 24.0725954 -14.39608921 21.83951767 -14.39404297 19.60644531 C-14.41246246 18.56457062 -14.43088196 17.52269592 -14.44985962 16.44924927 C-14.37235365 10.32489961 -13.54830551 6.84954661 -9.24740601 2.38766479 C-6.3258156 0.11956798 -3.55231495 0.02918897 0 0 Z " fill="#E05767" transform="translate(30.66748046875,16.8388671875)"/>
<path d="M0 0 C1.41694656 -0.01441132 1.41694656 -0.01441132 2.86251831 -0.02911377 C4.39067673 -0.03548859 4.39067673 -0.03548859 5.94970703 -0.04199219 C6.99901398 -0.04769226 8.04832092 -0.05339233 9.12942505 -0.05926514 C11.3502705 -0.06871405 13.57112997 -0.07524869 15.79199219 -0.07910156 C19.18726066 -0.08880926 22.58192435 -0.11983503 25.97705078 -0.15136719 C28.13459927 -0.15789714 30.29215209 -0.16314764 32.44970703 -0.16699219 C33.46443085 -0.17933899 34.47915466 -0.19168579 35.52462769 -0.20440674 C41.77078661 -0.18469421 45.25577608 0.52392414 50.08251953 4.66113281 C52.43182004 7.48029343 52.46783211 10.30642242 52.50952148 13.81274414 C52.52877434 15.22484917 52.52877434 15.22484917 52.54841614 16.66548157 C52.55580307 17.68111679 52.56319 18.69675201 52.57080078 19.74316406 C52.57887253 20.79009933 52.58694427 21.83703461 52.59526062 22.91569519 C52.60909471 25.13233792 52.61981988 27.34900189 52.62768555 29.56567383 C52.64489993 32.95011879 52.68879324 36.33358728 52.73291016 39.71777344 C52.74303717 41.87206313 52.75155325 44.02636113 52.75830078 46.18066406 C52.77580887 47.19022659 52.79331696 48.19978912 52.81135559 49.23994446 C52.79352837 55.03409719 52.41568468 58.69333115 48.33251953 63.16113281 C43.75595899 67.24319211 38.32593841 66.59453245 32.52001953 66.55957031 C30.95030396 66.56387558 30.95030396 66.56387558 29.34887695 66.56826782 C27.13996844 66.57030609 24.93104179 66.56479286 22.72216797 66.55224609 C19.34447807 66.53618966 15.96798479 66.55210344 12.59033203 66.57128906 C10.44189189 66.56930659 8.2934525 66.56546283 6.14501953 66.55957031 C5.13656982 66.56564301 4.12812012 66.5717157 3.08911133 66.57797241 C-3.57584183 66.51124044 -6.87167265 65.60528934 -11.94238281 61.17236328 C-14.57805533 56.57168613 -14.27813479 52.19829423 -14.26904297 46.98144531 C-14.28189835 45.35225662 -14.28189835 45.35225662 -14.29501343 43.69015503 C-14.30648508 41.39551579 -14.30751146 39.10080383 -14.29882812 36.80615234 C-14.29251399 33.30471942 -14.33941166 29.80667837 -14.39013672 26.30566406 C-14.39468374 24.0725954 -14.39608921 21.83951767 -14.39404297 19.60644531 C-14.41246246 18.56457062 -14.43088196 17.52269592 -14.44985962 16.44924927 C-14.37235365 10.32489961 -13.54830551 6.84954661 -9.24740601 2.38766479 C-6.3258156 0.11956798 -3.55231495 0.02918897 0 0 Z M-10.66748047 8.16113281 C-11.8279172 10.48200628 -11.80598663 11.85526988 -11.82861328 14.43969727 C-11.83822083 15.32434158 -11.84782837 16.2089859 -11.85772705 17.12043762 C-11.86197693 18.07874985 -11.86622681 19.03706207 -11.87060547 20.02441406 C-11.87630554 21.00854782 -11.88200562 21.99268158 -11.88787842 23.00663757 C-11.89733597 25.09222333 -11.90386539 27.17782409 -11.90771484 29.26342773 C-11.91740949 32.45029907 -11.94842147 35.63652261 -11.97998047 38.82324219 C-11.98651155 40.84862898 -11.99176161 42.87402039 -11.99560547 44.89941406 C-12.00795227 45.85165359 -12.02029907 46.80389313 -12.03302002 47.7849884 C-12.0111301 54.30653226 -11.03496001 57.52981783 -6.61474609 62.44262695 C-2.28905073 64.96487428 1.56569927 64.71588588 6.48876953 64.65722656 C7.46865845 64.65868179 8.44854736 64.66013702 9.45812988 64.66163635 C11.52582783 64.65997948 13.59353838 64.64844194 15.66113281 64.62768555 C18.82166054 64.59873229 21.98050995 64.60708124 25.14111328 64.62011719 C27.15284016 64.61387935 29.16456176 64.60548806 31.17626953 64.59472656 C32.1190979 64.5976622 33.06192627 64.60059784 34.0333252 64.60362244 C40.0359012 64.51753448 43.4437924 63.63718464 48.08251953 59.66113281 C50.35429205 56.93500579 50.47137647 54.19729122 50.54125977 50.80078125 C50.56055038 49.92266785 50.579841 49.04455444 50.59971619 48.13983154 C50.65764941 44.12435225 50.70673478 40.10904786 50.73754883 36.09326172 C50.75912458 33.97883772 50.79322228 31.86450294 50.84008789 29.75048828 C50.90719219 26.69425774 50.93456471 23.63987179 50.95361328 20.58300781 C50.98144394 19.64422791 51.0092746 18.705448 51.03794861 17.73822021 C51.01964095 11.86076436 49.9887547 8.71372061 45.91615295 4.42364502 C43.1159912 2.19128597 40.41347742 2.02319763 36.97216797 1.95239258 C36.09405457 1.93310196 35.21594116 1.91381134 34.31121826 1.89393616 C30.29573897 1.83600293 26.28043457 1.78691756 22.26464844 1.75610352 C20.15022444 1.73452776 18.03588966 1.70043006 15.921875 1.65356445 C12.86564446 1.58646016 9.81125851 1.55908763 6.75439453 1.54003906 C5.34622467 1.49829308 5.34622467 1.49829308 3.90960693 1.45570374 C-2.69316278 1.47627067 -6.35707343 3.08778268 -10.66748047 8.16113281 Z " fill="#21212B" transform="translate(30.66748046875,16.8388671875)"/>
<path d="M0 0 C1.08474609 -0.01224609 2.16949219 -0.02449219 3.28710938 -0.03710938 C4.33576172 -0.03904297 5.38441406 -0.04097656 6.46484375 -0.04296875 C7.41866943 -0.04707764 8.37249512 -0.05118652 9.35522461 -0.05541992 C12.53275837 0.22969561 15.73151603 0.85651603 18.0625 3.1875 C18.23046875 5.18359375 18.23046875 5.18359375 18.25 7.625 C18.26417969 8.42808594 18.27835938 9.23117188 18.29296875 10.05859375 C18.0625 12.1875 18.0625 12.1875 16.0625 14.1875 C10.49918455 15.68329708 4.78060319 15.41020595 -0.9375 15.4375 C-2.01773438 15.458125 -3.09796875 15.47875 -4.2109375 15.5 C-5.25507812 15.50515625 -6.29921875 15.5103125 -7.375 15.515625 C-8.32246094 15.5249707 -9.26992188 15.53431641 -10.24609375 15.54394531 C-13.45987276 15.11831783 -15.34338765 14.1046356 -17.9375 12.1875 C-18.49609375 9.99609375 -18.49609375 9.99609375 -18.375 7.625 C-18.35308594 6.83996094 -18.33117187 6.05492187 -18.30859375 5.24609375 C-17.9375 3.1875 -17.9375 3.1875 -15.9375 1.1875 C-10.87034137 -0.55843268 -5.28696918 0.00313024 0 0 Z " fill="#FDF6E9" transform="translate(49.9375,30.8125)"/>
<path d="M0 0 C1.07544067 0.48678223 1.07544067 0.48678223 2.17260742 0.98339844 C5.07584362 2.02726991 7.17085341 2.25781913 10.23828125 2.265625 C11.22376953 2.26820312 12.20925781 2.27078125 13.22460938 2.2734375 C14.24361328 2.26570313 15.26261719 2.25796875 16.3125 2.25 C17.82360352 2.26160156 17.82360352 2.26160156 19.36523438 2.2734375 C25.25993075 2.25807673 30.35224501 1.70039935 36 0 C36.08096803 1.45742463 36.13917774 2.91612807 36.1875 4.375 C36.23970703 5.59316406 36.23970703 5.59316406 36.29296875 6.8359375 C36.19628906 7.55007812 36.09960938 8.26421875 36 9 C30.28888297 12.80741135 22.64610245 12.20447937 15.9375 12.25 C15.17373047 12.270625 14.40996094 12.29125 13.62304688 12.3125 C8.32938948 12.34872691 4.73041629 11.38719547 0 9 C0 6.03 0 3.06 0 0 Z " fill="#FCEEE3" transform="translate(32,46)"/>
<path d="M0 0 C1.68802734 0.48726562 1.68802734 0.48726562 3.41015625 0.984375 C8.12370288 2.15835405 12.59955948 2.29685657 17.4375 2.25 C18.23220703 2.25773437 19.02691406 2.26546875 19.84570312 2.2734375 C25.45758444 2.25517263 30.57712326 1.4240424 36 0 C36.1953125 6.0546875 36.1953125 6.0546875 36 8 C31.42926384 12.57073616 24.0985381 11.18392627 18.0625 11.1875 C16.43538086 11.20586914 16.43538086 11.20586914 14.77539062 11.22460938 C13.72673828 11.22654297 12.67808594 11.22847656 11.59765625 11.23046875 C10.64383057 11.23457764 9.69000488 11.23868652 8.70727539 11.24291992 C5.52974163 10.95780439 2.33098397 10.33098397 0 8 C-0.14115161 5.32941149 -0.04247107 2.67567762 0 0 Z " fill="#FDF1E5" transform="translate(32,58)"/>
<path d="M0 0 C0.72058594 -0.01224609 1.44117187 -0.02449219 2.18359375 -0.03710938 C6.99474183 -0.05015951 10.93282121 0.66711022 15.5 2.1875 C15.17 4.4975 14.84 6.8075 14.5 9.1875 C11.53 9.1875 8.56 9.1875 5.5 9.1875 C5.5 8.5275 5.5 7.8675 5.5 7.1875 C4.90461426 7.13215088 4.30922852 7.07680176 3.69580078 7.01977539 C1.00512785 6.76731135 -1.68492286 6.50873184 -4.375 6.25 C-5.31214844 6.16298828 -6.24929687 6.07597656 -7.21484375 5.98632812 C-8.55869141 5.85581055 -8.55869141 5.85581055 -9.9296875 5.72265625 C-10.75710449 5.644104 -11.58452148 5.56555176 -12.43701172 5.48461914 C-14.5 5.1875 -14.5 5.1875 -16.5 4.1875 C-16.17 3.1975 -15.84 2.2075 -15.5 1.1875 C-10.29491625 0.3314007 -5.27158038 0.00471519 0 0 Z " fill="#F16171" transform="translate(50.5,31.8125)"/>
<path d="M0 0 C0.80953125 0.16242187 1.6190625 0.32484375 2.453125 0.4921875 C6.5893305 1.08437551 10.57903205 1.14949908 14.75 1.125 C15.93891846 1.12209961 15.93891846 1.12209961 17.15185547 1.11914062 C22.82395937 1.07737426 28.3700055 0.7264509 34 0 C34 0.99 34 1.98 34 3 C28.04187624 4.7150104 22.68743782 5.3373292 16.5 5.3125 C15.29537109 5.33666992 15.29537109 5.33666992 14.06640625 5.36132812 C8.39262593 5.365926 4.20395815 4.26181208 -1 2 C-0.67 1.34 -0.34 0.68 0 0 Z " fill="#F26D7B" transform="translate(33,56)"/>
<path d="M0 0 C0.78842285 0.24447876 0.78842285 0.24447876 1.59277344 0.49389648 C4.61364212 1.12901421 7.42818682 1.11169006 10.515625 1.09765625 C12.39121094 1.09282227 12.39121094 1.09282227 14.3046875 1.08789062 C15.60664062 1.07951172 16.90859375 1.07113281 18.25 1.0625 C19.56742188 1.05798828 20.88484375 1.05347656 22.2421875 1.04882812 C25.49483741 1.03704316 28.74739584 1.02059011 32 1 C32 1.99 32 2.98 32 4 C26.48541203 5.24065798 21.13037435 5.22188327 15.5 5.25 C14.46746094 5.270625 13.43492188 5.29125 12.37109375 5.3125 C3.03283695 5.36069745 3.03283695 5.36069745 -1 2 C-0.67 1.34 -0.34 0.68 0 0 Z " fill="#F15B6C" transform="translate(33,44)"/>
<path d="M0 0 C-0.33 1.32 -0.66 2.64 -1 4 C-3.97 4 -6.94 4 -10 4 C-10 3.34 -10 2.68 -10 2 C-16.93 1.505 -16.93 1.505 -24 1 C-24 0.67 -24 0.34 -24 0 C-20.3754207 -0.19632025 -16.75032733 -0.38055978 -13.125 -0.5625 C-12.09246094 -0.61857422 -11.05992188 -0.67464844 -9.99609375 -0.73242188 C-8.51689453 -0.80493164 -8.51689453 -0.80493164 -7.0078125 -0.87890625 C-6.09660645 -0.9260376 -5.18540039 -0.97316895 -4.24658203 -1.02172852 C-2 -1 -2 -1 0 0 Z " fill="#F7ABAD" transform="translate(66,37)"/>
<path d="M0 0 C1.33740805 0.31658898 2.6700124 0.65355828 4 1 C5.58567839 1.1421701 7.17518632 1.24504041 8.765625 1.31640625 C9.65507813 1.35830078 10.54453125 1.40019531 11.4609375 1.44335938 C12.38132812 1.48267578 13.30171875 1.52199219 14.25 1.5625 C15.18585937 1.60568359 16.12171875 1.64886719 17.0859375 1.69335938 C19.39048641 1.7991805 21.69513839 1.90126557 24 2 C24 2.33 24 2.66 24 3 C19.38 3 14.76 3 10 3 C10 3.66 10 4.32 10 5 C8.54054712 4.91291331 7.08234132 4.80473093 5.625 4.6875 C4.81289063 4.62949219 4.00078125 4.57148437 3.1640625 4.51171875 C1 4 1 4 -1 1 C-0.67 0.67 -0.34 0.34 0 0 Z " fill="#F37581" transform="translate(33,44)"/>
<path d="M0 0 C0 0.66 0 1.32 0 2 C-2.31 2.33 -4.62 2.66 -7 3 C-6.67 2.01 -6.34 1.02 -6 0 C-3.50907189 -1.24546405 -2.58919267 -0.7767578 0 0 Z " fill="#F26B79" transform="translate(65,46)"/>
<path d="M0 0 C-0.99 1.485 -0.99 1.485 -2 3 C-5.125 3.1875 -5.125 3.1875 -8 3 C-5.53387212 -0.1151089 -3.89156016 -0.31553191 0 0 Z " fill="#FCE7DD" transform="translate(65,48)"/>
</svg>
